<svg width="18" height="24" viewBox="0 0 18 24" fill="none" xmlns="http://www.w3.org/2000/svg">
<path d="M3.45946 7.38075C1.17872 11.9644 -0.192867 19.947 5.47416 22.3418C6.67846 22.8444 7.97045 23.1031 9.2754 23.1031C10.5804 23.1031 11.8723 22.8444 13.0766 22.3418C18.0183 20.286 18.0183 12.7912 14.4578 7.4536M6.7507 10.4218V19.0031M11.5118 10.4218V19.0031M5.64519 2.96816C5.64519 1.7676 7.1213 0.785645 8.93006 0.785645H9.33553C11.1443 0.785645 12.6205 1.7676 12.6205 2.96816M2.49014 3.20257H15.7723C16.4966 3.20257 17.0838 3.78972 17.0838 4.514V6.06934C17.0838 6.79363 16.4966 7.38077 15.7723 7.38077H2.49014C1.76586 7.38077 1.17871 6.79363 1.17871 6.06934V4.514C1.17871 3.78972 1.76586 3.20257 2.49014 3.20257Z" stroke="#FD5D69" stroke-width="1.54522" stroke-linecap="round" stroke-linejoin="round"/>
</svg>
