<svg width="18" height="19" viewBox="0 0 18 19" fill="none" xmlns="http://www.w3.org/2000/svg">
<path d="M8.90237 5.57729L11.8034 1.96605C12.1635 1.52282 12.6844 1.2401 13.2522 1.17976C13.8201 1.11943 14.3887 1.28636 14.8338 1.64403C15.2764 2.00455 15.5585 2.52534 15.6189 3.09295C15.6792 3.66056 15.5127 4.22902 15.1558 4.67448L12.2548 8.28572M3.06421 17.5847H17.0518M8.93553 5.52318L2.56171 13.4137L1.78226 15.9627C1.70944 16.2013 1.70964 16.4563 1.78277 16.6949C1.8559 16.9334 1.99861 17.1447 2.19266 17.3016C2.38672 17.4585 2.62323 17.5537 2.87183 17.5752C3.12043 17.5967 3.36978 17.5434 3.58788 17.4222L5.91411 16.1222L12.2849 8.23161C12.4632 8.01166 12.5963 7.75868 12.6766 7.4872C12.7569 7.21573 12.7828 6.93108 12.7529 6.64956C12.7229 6.36804 12.6378 6.09514 12.5022 5.8466C12.3667 5.59806 12.1835 5.37874 11.963 5.20116C11.7431 5.02338 11.4903 4.89069 11.2192 4.81066C10.948 4.73062 10.6636 4.70478 10.3825 4.73469C10.1013 4.76459 9.82881 4.84964 9.58053 4.98493C9.33225 5.12022 9.11309 5.30313 8.93553 5.52318Z" stroke="#FFFDF9" stroke-width="1.50468" stroke-linecap="round" stroke-linejoin="round"/>
</svg>
