<svg width="23" height="16" viewBox="0 0 23 16" fill="none" xmlns="http://www.w3.org/2000/svg">
<path d="M4.65579 14.5715V7.91855C4.66106 6.08526 5.39167 4.32856 6.68801 3.03222C7.98435 1.73588 9.74105 1.00527 11.5743 1C13.4076 1.00527 15.1643 1.73588 16.4607 3.03222C17.757 4.32856 18.4876 6.08526 18.4929 7.91855V14.5601M8.50196 5.717C8.8142 5.1785 9.26224 4.73139 9.80138 4.42024C10.3405 4.10908 10.9519 3.94479 11.5743 3.94383C12.1972 3.94486 12.8089 4.10912 13.3485 4.42024C13.888 4.73136 14.3367 5.17847 14.6496 5.717M21.1569 8.88935C20.6401 8.06415 19.5722 7.86429 18.6528 7.83859H18.4929V14.5887C19.1662 14.6251 19.8374 14.4854 20.4402 14.1832C21.2112 13.7092 21.5139 12.7555 21.6053 11.9218C21.6368 11.6373 21.653 11.3514 21.6538 11.0652C21.6951 10.3077 21.523 9.5538 21.1569 8.88935ZM2.0003 8.88935C2.51997 8.06415 3.58789 7.86429 4.50732 7.83859H4.66434V14.5887C3.99194 14.6249 3.32174 14.4852 2.71985 14.1832C1.9489 13.7092 1.64621 12.7555 1.55484 11.9218C1.5233 11.6373 1.50712 11.3514 1.50632 11.0652C1.46396 10.308 1.63511 9.55404 2.0003 8.88935Z" stroke="#FFFDF9" stroke-width="1.42768" stroke-linecap="round" stroke-linejoin="round"/>
</svg>
