<svg width="22" height="22" viewBox="0 0 22 22" fill="none" xmlns="http://www.w3.org/2000/svg">
<path d="M10.6815 11.2862H1.28622M3.69823 13.8046L1.84037 12.4027C1.66777 12.2719 1.52783 12.1032 1.43153 11.9098C1.33523 11.7164 1.28516 11.5035 1.28516 11.2877C1.28516 11.0718 1.33523 10.859 1.43153 10.6655C1.52783 10.4721 1.66777 10.3034 1.84037 10.1726L3.69823 8.7678M16.8033 5.13291V17.4396M7.26731 15.1924C8.99015 21.5684 13.8515 21.063 13.8515 21.063C13.8515 21.063 18.7329 21.5684 20.4357 15.1924C21.1047 12.6308 21.1047 9.94165 20.4357 7.38005C18.7272 1.00401 13.8515 1.50947 13.8515 1.50947C13.8515 1.50947 8.97005 1.00401 7.26731 7.38005" stroke="#FFFDF9" stroke-width="1.42768" stroke-linecap="round" stroke-linejoin="round"/>
</svg>
