<svg width="23" height="32" viewBox="0 0 23 32" fill="none" xmlns="http://www.w3.org/2000/svg">
<path d="M1.3647 19.9101C2.05683 18.1583 2.31544 16.2652 2.11859 14.3919C2.03372 13.6227 2.05172 12.8455 2.17212 12.0811C2.53905 9.89608 3.66857 7.91192 5.35999 6.48087C6.94484 5.13997 8.92693 4.36605 10.993 4.27385C10.2786 4.08696 9.75134 3.43702 9.75134 2.66395C9.75134 1.74498 10.4963 1 11.4153 1C12.3343 1 13.0792 1.74498 13.0792 2.66395C13.0792 3.43749 12.5514 4.08775 11.8362 4.27419C13.8996 4.36794 15.8788 5.14161 17.4617 6.48087C19.1531 7.91192 20.2826 9.89608 20.6495 12.0811C20.7699 12.8455 20.7879 13.6227 20.7031 14.3919C20.5108 16.2651 20.7693 18.1571 21.457 19.9101C21.7376 20.5725 21.8601 21.2912 21.8146 22.0092C21.7692 22.7271 21.5571 23.4245 21.1951 24.0462C20.8332 24.6679 20.3314 25.1968 19.7295 25.5908C19.1276 25.9848 18.4422 26.2331 17.7276 26.3161C13.531 26.786 9.29512 26.786 5.09855 26.3161C4.384 26.2329 3.69864 25.9844 3.09671 25.5905C2.49479 25.1965 1.99282 24.6679 1.63056 24.0463C1.26829 23.4248 1.05569 22.7275 1.00955 22.0096C0.963401 21.2917 1.085 20.5729 1.3647 19.9101Z" fill="#FD5D69"/>
<path d="M10.993 4.27385C8.92693 4.36605 6.94484 5.13997 5.35999 6.48087C3.66857 7.91192 2.53905 9.89608 2.17212 12.0811C2.05172 12.8455 2.03372 13.6227 2.11859 14.3919C2.31544 16.2652 2.05683 18.1583 1.3647 19.9101C1.085 20.5729 0.963401 21.2917 1.00955 22.0096C1.05569 22.7275 1.26829 23.4248 1.63056 24.0463C1.99282 24.6679 2.49479 25.1965 3.09671 25.5905C3.69864 25.9844 4.384 26.2329 5.09855 26.3161C9.29512 26.786 13.531 26.786 17.7276 26.3161C18.4422 26.2331 19.1276 25.9848 19.7295 25.5908C20.3314 25.1968 20.8332 24.6679 21.1951 24.0462C21.5571 23.4245 21.7692 22.7271 21.8146 22.0092C21.8601 21.2912 21.7376 20.5725 21.457 19.9101C20.7693 18.1571 20.5108 16.2651 20.7031 14.3919C20.7879 13.6227 20.7699 12.8455 20.6495 12.0811C20.2826 9.89608 19.1531 7.91192 17.4617 6.48087C15.8788 5.14161 13.8996 4.36794 11.8362 4.27419M10.993 4.27385C11.132 4.26765 11.2713 4.26453 11.4109 4.26453C11.553 4.26453 11.6948 4.26776 11.8362 4.27419M10.993 4.27385C11.1279 4.30912 11.2694 4.3279 11.4153 4.3279C11.5607 4.3279 11.7018 4.30924 11.8362 4.27419M10.993 4.27385C10.2786 4.08696 9.75134 3.43702 9.75134 2.66395C9.75134 1.74498 10.4963 1 11.4153 1C12.3343 1 13.0792 1.74498 13.0792 2.66395C13.0792 3.43749 12.5514 4.08775 11.8362 4.27419M12.5707 29.3987C12.5247 29.7846 12.3388 30.1403 12.0482 30.3983C11.7576 30.6564 11.3824 30.7989 10.9937 30.7989C10.6051 30.7989 10.2299 30.6564 9.93929 30.3983C9.64867 30.1403 9.46277 29.7846 9.41679 29.3987" stroke="#FD5D69" stroke-width="1.72584" stroke-linecap="round" stroke-linejoin="round"/>
</svg>
