<svg width="28" height="27" viewBox="0 0 28 27" fill="none" xmlns="http://www.w3.org/2000/svg">
<path d="M19.793 5.08233L17.0182 1.33926C16.7069 0.922248 16.3081 0.584774 15.8527 0.352682C15.3973 0.120591 14.8972 0 14.3903 0C13.8834 0 13.3832 0.120591 12.9278 0.352682C12.4724 0.584774 12.0739 0.922248 11.7626 1.33926L8.98779 5.08233C8.59799 5.60971 8.07263 6.01094 7.47275 6.23938L3.20513 7.84192C2.7179 8.01508 2.27586 8.30369 1.91365 8.685C1.55144 9.0663 1.27885 9.52992 1.11752 10.0395C0.956186 10.5491 0.910319 11.0907 0.983654 11.6218C1.05699 12.153 1.2476 12.6592 1.54024 13.1007L4.09312 17.0173C4.4441 17.5686 4.63665 18.213 4.64808 18.8745L4.79224 23.601C4.80292 24.1363 4.93242 24.6618 5.17026 25.1363C5.40809 25.6109 5.74798 26.0215 6.16339 26.3363C6.57879 26.6512 7.05825 26.8617 7.56461 26.9512C8.07097 27.0407 8.59034 27.0068 9.08209 26.8523L13.4443 25.5334C14.0549 25.3471 14.7037 25.3471 15.3143 25.5334L19.6765 26.8523C20.1682 27.0068 20.6876 27.0407 21.194 26.9512C21.7003 26.8617 22.1798 26.6512 22.5952 26.3363C23.0106 26.0215 23.3505 25.6109 23.5883 25.1363C23.8262 24.6618 23.9557 24.1363 23.9663 23.601L24.1105 18.8745C24.1255 18.2136 24.3178 17.5702 24.6655 17.0173L27.2183 13.1007C27.5059 12.6594 27.6928 12.1555 27.7649 11.6274C27.837 11.0992 27.7925 10.561 27.6346 10.0536C27.4766 9.54624 27.2095 9.08314 26.8536 8.69983C26.4977 8.31651 26.0624 8.02308 25.5811 7.84192L21.308 6.23938C20.7082 6.01094 20.1828 5.60971 19.793 5.08233Z" fill="#FD5D69"/>
</svg>
