<svg width="14" height="17" viewBox="0 0 14 17" fill="none" xmlns="http://www.w3.org/2000/svg">
<path d="M5.06888 1.51504L11.008 6.00324C11.3948 6.29569 11.7083 6.67327 11.9242 7.10641C12.1401 7.53955 12.2524 8.01654 12.2524 8.50008C12.2524 8.98361 12.1401 9.46051 11.9242 9.89365C11.7083 10.3268 11.3948 10.7044 11.008 10.9968L5.06888 15.4888C4.69232 15.7722 4.24396 15.9455 3.77397 15.9891C3.30397 16.0327 2.8309 15.9449 2.40823 15.7357C1.98556 15.5265 1.6299 15.2041 1.38113 14.8047C1.13237 14.4052 1.00035 13.9446 1 13.4746V3.52543C0.999631 3.05518 1.13126 2.59413 1.38001 2.19439C1.62877 1.79464 1.98478 1.47209 2.40786 1.26305C2.83093 1.05401 3.30434 0.96681 3.77453 1.01134C4.24471 1.05586 4.69297 1.23034 5.06888 1.51504Z" stroke="#FD5D69" stroke-width="1.90016" stroke-linecap="round" stroke-linejoin="round"/>
</svg>
