<svg width="20" height="21" viewBox="0 0 20 21" fill="none" xmlns="http://www.w3.org/2000/svg">
<path d="M6.91708 10.8351L8.87294 12.7796L13.4156 7.59137M18.4113 5.79535C18.8014 9.79286 18.44 17.3225 10.6682 19.1813C9.99801 19.3412 9.29937 19.3412 8.62918 19.1813C0.86883 17.3225 0.507483 9.80143 0.886037 5.79535C0.974458 5.03786 1.28522 4.32315 1.7795 3.74061C2.27378 3.15808 2.92962 2.73359 3.66495 2.52025L9.11383 0.827036C9.45317 0.724321 9.81551 0.724321 10.1549 0.827036L15.6037 2.52025C16.3449 2.72779 17.0075 3.14991 17.5074 3.73301C18.0073 4.31612 18.3219 5.03391 18.4113 5.79535Z" stroke="#FFFDF9" stroke-width="1.42768" stroke-linecap="round" stroke-linejoin="round"/>
</svg>
