<svg width="25" height="23" viewBox="0 0 25 23" fill="none" xmlns="http://www.w3.org/2000/svg">
<path d="M3.9005 7.1689C4.60899 5.10826 6.03102 3.36841 7.91012 2.26311C9.78921 1.15781 12.0017 0.759785 14.1486 1.14087C16.2954 1.52195 18.2353 2.65702 19.6185 4.3414C21.0017 6.02577 21.7844 8.41126 21.7393 10.5897M24.1629 8.0557L22.6124 10.0962C22.4936 10.252 22.3403 10.3783 22.1647 10.4653C21.989 10.5522 21.7956 10.5973 21.5996 10.5973C21.4035 10.5973 21.2102 10.5522 21.0345 10.4653C20.8588 10.3783 20.7056 10.252 20.5868 10.0962L19.0363 8.0557M21.052 16.4619C20.211 18.4225 18.7101 20.0273 16.8094 20.9984C14.9087 21.9694 12.7279 22.2453 10.6449 21.7784C8.562 21.3115 6.70815 20.1311 5.40465 18.4418C4.10116 16.7526 3.43013 14.5473 3.5079 12.4156M1.03369 14.9422L2.56769 12.9246C2.6876 12.7656 2.84281 12.6366 3.02114 12.5477C3.19948 12.4589 3.39605 12.4126 3.59533 12.4126C3.7946 12.4126 3.99118 12.4589 4.16951 12.5477C4.34784 12.6366 4.50305 12.7656 4.62296 12.9246L6.15696 14.9422" stroke="#FFFDF9" stroke-width="1.43" stroke-linecap="round" stroke-linejoin="round"/>
</svg>
